# xmcd CD database file
#
# Track frame offsets:
#	150
#	220280
#	246660
#	288305
#
# Disc length: 4211 seconds
#
# Revision: 2
# Processed by: cddbd v1.4b41PL1 Copyright (c) Steve Scherf et al.
# Submitted via: Feurio! 1.50.2ß - http://www.feurio.com
#
DISCID=3f107104
DTITLE=Grateful Dead - Floating Celestial Disc 2
DYEAR=1900
DGENRE=
TTITLE0=Estimated Prophet-->Space
TTITLE1=Around And Around
TTITLE2=Wharf Rat
TTITLE3=Sugar Magnolia
EXTD=
EXTT0=
EXTT1=
EXTT2=
EXTT3=
PLAYORDER=
